<?xml version="1.0" encoding="utf-8"?>
<!-- Generator: Adobe Illustrator 17.1.0, SVG Export Plug-In . SVG Version: 6.00 Build 0)  -->
<!DOCTYPE svg PUBLIC "-//W3C//DTD SVG 1.1//EN" "http://www.w3.org/Graphics/SVG/1.1/DTD/svg11.dtd">
<svg version="1.1" id="Layer_1" xmlns="http://www.w3.org/2000/svg" xmlns:xlink="http://www.w3.org/1999/xlink" x="0px" y="0px"
	 viewBox="0 0 408.2 183.8" enable-background="new 0 0 408.2 183.8" xml:space="preserve">
<rect x="0" y="0" fill="#232323" width="408.2" height="183.8"/>
<g>
	<g>
		<path fill="#0EADA5" d="M133,66.2c-3-4.5-6.7-8.6-10.7-12.2L110,64.8c0,0,0,0,0,0v0L80.8,90.7L51.4,64.9l0,0c0,0,0,0,0,0L39.1,54
			c-4.1,3.6-7.7,7.7-10.7,12.2c-6.7,10-10.6,22-10.6,35c0,22.2,11.5,41.7,28.8,52.9c1.4,0.9,2.8,1.7,4.3,2.6L64.5,145
			c-1.7-0.6-3.3-1.3-4.8-2.1C44.5,135.2,34,119.4,34,101.2c0-8.8,2.5-17,6.7-24.1l0,0l40.1,35.2l39.9-35.3l0,0
			c4.3,7,6.7,15.3,6.7,24.1c0,15.7-7.8,29.7-19.8,38.1c0.7-0.4,1.5-0.6,2.4-0.6h7.7c2.9,0,5.3,2.4,5.3,5.3v0.8h0.3
			c0.5-1,1.6-1.7,2.8-1.7h1.5c10-11.1,16-25.8,16-41.9C143.7,88.3,139.8,76.2,133,66.2z"/>
		<path fill="#FFFFFE" d="M100.6,41.4c-0.4,4.3-0.7,8.2-0.9,10.8l-0.1,0.9l-0.7,0.6c-4.5,3.5-10.3,5.3-17.1,5.3c0,0,0,0,0,0
			c-10.6,0-20.1-4.3-20.5-4.5l-1.2-0.6l0-1.3c0.1-3.3,0-7-0.2-10.8c-4.7,1.7-9.2,3.9-13.4,6.6l12.9,11.3l21.4,18.8l21.2-18.8
			l12.8-11.4C110.5,45.5,105.7,43.1,100.6,41.4z"/>
		<path fill="#0EADA5" d="M59.4,14.2c0,0,3.1,23,2.7,38.4c0,0,21.8,10.1,35.5-0.5c0,0,2.5-32.3,4.4-38.1C102,13.9,80,5.7,59.4,14.2z
			"/>
		<g>
			<path fill="#0EADA5" d="M113.9,153.8c-3.5,0-6.3,2.8-6.3,6.3c0,3.5,2.8,6.3,6.3,6.3c3.5,0,6.3-2.8,6.3-6.3
				C120.2,156.6,117.4,153.8,113.9,153.8z M118.3,160.9h-3.6v3.6h-1.6v-3.6h-3.6v-1.6h3.6v-3.6h1.6v3.6h3.6V160.9z"/>
			<path fill="#FFFFFE" d="M131.3,146.9h-2.3v-0.6c0-0.6-0.5-1.1-1.1-1.1h-1.6c-0.6,0-1.1,0.5-1.1,1.1v0.6h-4V144
				c0-1.8-1.5-3.3-3.3-3.3h-7.7c-1.8,0-3.3,1.5-3.3,3.3v2.8h-4.1v-0.6c0-0.6-0.5-1.1-1.1-1.1h-1.6c-0.6,0-1.1,0.5-1.1,1.1v0.6h-2.3
				c-1.9,0-3.4,1.5-3.4,3.4v19.8c0,1.9,1.5,3.4,3.4,3.4h34.7c1.9,0,3.4-1.5,3.4-3.4v-19.8C134.6,148.4,133.1,146.9,131.3,146.9z
				 M108.4,144c0-0.9,0.7-1.7,1.7-1.7h7.7c0.9,0,1.7,0.7,1.7,1.7v2.5h-11V144z M113.9,168.1c-4.4,0-7.9-3.6-7.9-7.9
				c0-4.4,3.6-7.9,7.9-7.9c4.4,0,7.9,3.6,7.9,7.9C121.8,164.5,118.3,168.1,113.9,168.1z"/>
		</g>
		<g>
			<path fill="#FFFFFE" d="M85.5,123.9c0.8,1,0.7,2.5-0.3,3.3L64.5,145l-13.6,11.7c-1.5-0.8-2.9-1.6-4.3-2.6l13.1-11.2l22.4-19.2
				C83.1,122.8,84.6,122.9,85.5,123.9L85.5,123.9z"/>
		</g>
		<path fill="#0EADA5" d="M90.1,112.6l1.9,3.4c0.5,0.9,1.5,1.4,2.5,1.3l3.8-0.6l-3.4,1.9c-0.9,0.5-1.4,1.5-1.2,2.5l0.5,3.8l-2-3.3
			c-0.5-0.8-1.4-1.3-2.4-1.2l-3.8,0.4l3.5-1.7c1-0.5,1.5-1.6,1.3-2.7L90.1,112.6z"/>
		<path fill="#FFFFFE" d="M90.2,126.2l0.6,3.2c0.2,0.9,0.8,1.5,1.7,1.7l3.2,0.6l-3.2,0.6c-0.9,0.2-1.5,0.8-1.7,1.7l-0.6,3.2
			l-0.7-3.2c-0.2-0.8-0.8-1.4-1.6-1.6l-3.2-0.7l3.2-0.5c0.9-0.1,1.6-0.9,1.8-1.8L90.2,126.2z"/>
		<path fill="#0EADA5" d="M75.9,117.8l0.4,2.2c0.1,0.6,0.6,1.1,1.2,1.2l2.2,0.4l-2.2,0.4c-0.6,0.1-1,0.6-1.2,1.2l-0.4,2.2l-0.5-2.2
			c-0.1-0.5-0.5-1-1.1-1.1l-2.2-0.5l2.2-0.3c0.6-0.1,1.1-0.6,1.2-1.2L75.9,117.8z"/>
		<path fill="#FFFFFE" d="M82.9,115.3l0.3,1.4c0.1,0.4,0.4,0.7,0.7,0.7l1.4,0.3l-1.4,0.3c-0.4,0.1-0.7,0.4-0.7,0.7l-0.3,1.4
			l-0.3-1.4c-0.1-0.3-0.4-0.6-0.7-0.7l-1.4-0.3l1.4-0.2c0.4-0.1,0.7-0.4,0.8-0.8L82.9,115.3z"/>
	</g>
	<g>
		<g>
			<path fill="#FFFFFE" d="M176,55l7.6,22.9l7.6-22.9h9.2v29.8h-6.1l0.5-23.2L187,84.9h-6.6l-7.9-23.5l0.6,23.5h-6.4V55H176z"/>
			<path fill="#FFFFFE" d="M213.6,62.1c-1.1,1.2-1.8,2.9-1.9,5.1l17.4,0v5.2h-17.4c0,1.1,0.1,2.1,0.4,3c0.2,1,0.7,1.9,1.4,2.7
				c0.6,0.7,1.4,1.2,2.3,1.4c0.9,0.2,1.8,0.3,2.7,0.3c0.1,0,0.1,0,0.2,0s0.1,0,0.2,0l10.3,0v5.2h-10.6c-1.7,0-3.3-0.2-4.9-0.5
				c-1.6-0.3-3-1-4.4-2.1c-1.7-1.4-2.8-3-3.5-5c-0.7-2-1-4-1.1-6c0-0.4,0-0.9,0-1.3c0-0.4,0-0.8,0.1-1.2c0.3-4.7,1.6-8.2,3.8-10.4
				c2.3-2.2,5.6-3.3,10.2-3.3l10.4,0v5.2h-10.3C216.5,60.3,214.8,60.9,213.6,62.1z"/>
			<path fill="#FFFFFE" d="M248.3,55c4.5,0,7.9,1.1,10.2,3.4c2.2,2.2,3.5,5.7,3.8,10.4c0,0.4,0,0.8,0.1,1.2c0,0.4,0,0.8,0,1.3
				c-0.1,2.1-0.4,4.1-1.1,6c-0.7,2-1.8,3.6-3.5,5c-1.4,1.1-2.8,1.8-4.4,2.1c-1.6,0.3-3.2,0.5-4.9,0.5h-13.8V55H248.3z M248.1,60.2
				h-7.3v19.4h7.3c0.1,0,0.1,0,0.2,0c0.1,0,0.1,0,0.2,0c0.9,0,1.8-0.1,2.7-0.3c0.9-0.2,1.6-0.6,2.3-1.4c0.7-0.8,1.1-1.6,1.4-2.6
				c0.3-1,0.4-2,0.5-3c0-0.4,0-0.8,0-1.2s0-0.8,0-1.2c0-0.4,0-0.9,0-1.3c0-0.5,0-0.9-0.1-1.4c-0.1-1-0.2-1.9-0.5-2.9
				c-0.3-0.9-0.7-1.8-1.4-2.5c-0.7-0.7-1.4-1.2-2.3-1.4c-0.9-0.2-1.8-0.3-2.7-0.3c-0.1,0-0.1,0-0.2,0
				C248.2,60.3,248.2,60.3,248.1,60.2L248.1,60.2z"/>
			<path fill="#FFFFFE" d="M266.7,84.9V55h6.6v29.8H266.7z"/>
			<path fill="#FFFFFE" d="M285.9,63.1c-0.9,2-1.4,4.3-1.5,6.9c0,0.4,0,0.9,0,1.4c0,0.5,0,0.9,0,1.4c0.1,1,0.3,1.9,0.5,2.8
				c0.3,0.9,0.7,1.8,1.4,2.5c0.7,0.7,1.4,1.2,2.3,1.4c0.9,0.2,1.8,0.3,2.7,0.3c0.1,0,0.1,0,0.2,0c0.1,0,0.1,0,0.2,0l10.3,0v5.2
				h-10.6c-1.7,0-3.3-0.2-4.9-0.5c-1.6-0.3-3-1-4.4-2.1c-1.7-1.4-2.8-3-3.5-5c-0.7-2-1-4-1.1-6c0-0.4,0-0.9,0-1.3
				c0-0.4,0-0.8,0.1-1.2c0.3-4.7,1.6-8.2,3.8-10.4c2.3-2.2,5.6-3.3,10.2-3.3l10.4,0v5.1h-10.3C288.7,60.2,286.7,61.2,285.9,63.1z"/>
			<path fill="#FFFFFE" d="M321.8,55l12.7,29.8h-7l-2.7-7.1h-13l-2.7,7.1h-6.6L315.2,55H321.8z M313.9,72.4h8.9L318.3,61L313.9,72.4
				z"/>
			<path fill="#FFFFFE" d="M352.1,55c0.3,0,0.6,0,0.9,0s0.6,0,0.9,0c1.1,0.1,2.3,0.2,3.3,0.5c1.1,0.3,2.1,0.9,2.9,1.7
				c0.7,0.7,1.3,1.6,1.7,2.5c0.4,1,0.6,2,0.7,3c0,0.2,0,0.4,0,0.6c0,0.2,0,0.4,0,0.6c0,2.1-0.4,3.9-1.4,5.4c-1,1.5-2.5,2.5-4.6,3
				l7.4,12.4h-7.1l-6.6-11.7h-7.4v11.7h-6.3V55H352.1z M350.6,60.4h-7.7v7.5h7.7c0.1,0,0.1,0,0.2,0c0.1,0,0.1,0,0.2,0
				c1.3,0,2.5-0.2,3.6-0.6c1.1-0.4,1.6-1.5,1.6-3.2c0-1.8-0.6-2.8-1.7-3.2C353.3,60.6,352,60.4,350.6,60.4L350.6,60.4z"/>
			<path fill="#FFFFFE" d="M374.9,62.1c-1.1,1.2-1.8,2.9-1.9,5.1l17.4,0v5.2H373c0,1.1,0.1,2.1,0.4,3c0.2,1,0.7,1.9,1.4,2.7
				c0.6,0.7,1.4,1.2,2.3,1.4c0.9,0.2,1.8,0.3,2.7,0.3c0.1,0,0.1,0,0.2,0c0.1,0,0.1,0,0.2,0l10.3,0v5.2h-10.6c-1.7,0-3.3-0.2-4.9-0.5
				c-1.6-0.3-3-1-4.4-2.1c-1.7-1.4-2.8-3-3.5-5c-0.7-2-1-4-1.1-6c0-0.4,0-0.9,0-1.3c0-0.4,0-0.8,0.1-1.2c0.3-4.7,1.6-8.2,3.8-10.4
				c2.3-2.2,5.6-3.3,10.2-3.3l10.4,0v5.2h-10.3C377.8,60.3,376.1,60.9,374.9,62.1z"/>
		</g>
		<g>
			<path fill="#FFFFFE" d="M176,98.9l7.6,22.9l7.6-22.9h9.2v29.8h-6.1l0.5-23.2l-7.6,23.2h-6.6l-7.9-23.5l0.6,23.5h-6.4V98.9H176z"
				/>
			<path fill="#FFFFFE" d="M221.7,98.9l12.7,29.8h-7l-2.7-7.1h-13l-2.7,7.1h-6.6l12.6-29.8H221.7z M213.8,116.3h8.9l-4.5-11.5
				L213.8,116.3z"/>
			<path fill="#FFFFFE" d="M247.3,111h14.8v17.7h-13.5c-1.7,0-3.4-0.1-5-0.4c-1.6-0.3-3.1-1-4.5-2.1c-1.7-1.4-2.8-3-3.5-5
				c-0.7-2-1-4-1.1-6c0-0.4,0-0.9,0-1.3c0-0.4,0-0.8,0.1-1.2c0.3-4.7,1.6-8.2,3.8-10.4c2.3-2.2,5.6-3.3,10.2-3.3l13.5,0v5.2h-13.5
				c-3,0-4.9,1.1-5.8,3.1c-0.9,2.1-1.3,4.3-1.3,6.8c0,0,0,0,0,0.1s0,0,0,0.1c0,2.5,0.4,4.7,1.3,6.5c0.9,1.8,2.8,2.7,5.8,2.7l7.1,0
				v-7h-8.4V111z"/>
			<path fill="#FFFFFE" d="M267.4,128.7V98.9h6.6v29.8H267.4z"/>
			<path fill="#FFFFFE" d="M286.6,107c-0.9,2-1.4,4.3-1.5,6.9c0,0.4,0,0.9,0,1.4c0,0.5,0,0.9,0,1.4c0.1,1,0.3,1.9,0.5,2.8
				c0.3,0.9,0.7,1.8,1.4,2.5c0.7,0.7,1.4,1.2,2.3,1.4c0.9,0.2,1.8,0.3,2.7,0.3c0.1,0,0.1,0,0.2,0c0.1,0,0.1,0,0.2,0l10.3,0v5.2
				h-10.6c-1.7,0-3.3-0.2-4.9-0.5c-1.6-0.3-3-1-4.4-2.1c-1.7-1.4-2.8-3-3.5-5c-0.7-2-1-4-1.1-6c0-0.4,0-0.9,0-1.3
				c0-0.4,0-0.8,0.1-1.2c0.3-4.7,1.6-8.2,3.8-10.4c2.3-2.2,5.6-3.3,10.2-3.3l10.4,0v5.1h-10.3C289.4,104,287.4,105,286.6,107z"/>
			<path fill="#FFFFFE" d="M307.4,128.7V98.9h6.6v29.8H307.4z"/>
			<path fill="#FFFFFE" d="M335.3,98.9l12.7,29.8h-7l-2.7-7.1h-13l-2.7,7.1h-6.6l12.6-29.8H335.3z M327.4,116.3h8.9l-4.5-11.5
				L327.4,116.3z"/>
			<path fill="#FFFFFE" d="M358.1,98.9l12.2,21.4L370,98.9h6.4v29.8h-7.3l-12.8-22.6l0.3,22.6h-6.4V98.9H358.1z"/>
		</g>
	</g>
</g>
</svg>
