<?xml version="1.0" encoding="utf-8"?>
<!-- Generator: Adobe Illustrator 17.1.0, SVG Export Plug-In . SVG Version: 6.00 Build 0)  -->
<!DOCTYPE svg PUBLIC "-//W3C//DTD SVG 1.1//EN" "http://www.w3.org/Graphics/SVG/1.1/DTD/svg11.dtd">
<svg version="1.1" id="Layer_1" xmlns="http://www.w3.org/2000/svg" xmlns:xlink="http://www.w3.org/1999/xlink" x="0px" y="0px"
	 viewBox="0 0 408.2 183.8" enable-background="new 0 0 408.2 183.8" xml:space="preserve">
<g>
	<g>
		<path fill="#0EADA5" d="M130.2,65.2c-3.2-4.7-6.9-9-11.2-12.7l-12.8,11.3c0,0,0,0,0,0v0L75.8,90.6L45.3,63.8l0,0c0,0,0,0,0,0
			L32.4,52.5c-4.2,3.7-8,8-11.2,12.7c-7,10.4-11,22.9-11,36.4c0,23,12,43.4,30,55c1.5,0.9,3,1.8,4.5,2.7l14.2-12.1
			c-1.7-0.6-3.4-1.4-5-2.2c-15.8-8-26.7-24.4-26.7-43.4c0-9.2,2.5-17.7,7-25l0,0l41.7,36.6l41.5-36.7l0,0c4.4,7.3,7,15.9,7,25.1
			c0,16.4-8.1,30.9-20.6,39.7c0.8-0.4,1.6-0.6,2.5-0.6h8c3,0,5.5,2.5,5.5,5.5v0.8h0.3c0.6-1,1.7-1.8,2.9-1.8h1.6
			c10.4-11.6,16.7-26.9,16.7-43.6C141.3,88.1,137.2,75.6,130.2,65.2z"/>
		<path fill="#232946" d="M96.4,39.4c-0.4,4.5-0.7,8.5-0.9,11.2l-0.1,0.9l-0.7,0.6C90,55.8,84,57.6,76.9,57.6c0,0,0,0,0,0
			c-11.1,0-20.9-4.5-21.3-4.7l-1.3-0.6l0-1.4c0.1-3.4,0-7.3-0.2-11.2c-4.9,1.7-9.6,4-13.9,6.8l13.4,11.8l22.3,19.5L98,58.4
			l13.4-11.8C106.7,43.6,101.7,41.2,96.4,39.4z"/>
		<path fill="#0EADA5" d="M53.6,11c0,0,3.2,24,2.8,39.9c0,0,22.7,10.5,36.9-0.6c0,0,2.6-33.6,4.5-39.7C97.9,10.8,75,2.2,53.6,11z"/>
		<g>
			<path fill="#0EADA5" d="M110.3,156.3c-3.6,0-6.6,3-6.6,6.6s3,6.6,6.6,6.6c3.6,0,6.6-3,6.6-6.6S113.9,156.3,110.3,156.3z
				 M114.8,163.7h-3.8v3.8h-1.6v-3.8h-3.8v-1.6h3.8v-3.8h1.6v3.8h3.8V163.7z"/>
			<path fill="#232946" d="M128.3,149.1h-2.4v-0.6c0-0.7-0.5-1.2-1.2-1.2H123c-0.7,0-1.2,0.5-1.2,1.2v0.6h-4.2v-2.9
				c0-1.9-1.5-3.4-3.4-3.4h-8c-1.9,0-3.4,1.5-3.4,3.4v2.9h-4.3v-0.6c0-0.7-0.5-1.2-1.2-1.2h-1.7c-0.7,0-1.2,0.5-1.2,1.2v0.6h-2.4
				c-1.9,0-3.5,1.6-3.5,3.5v20.6c0,1.9,1.6,3.5,3.5,3.5h36.1c1.9,0,3.5-1.6,3.5-3.5v-20.6C131.8,150.6,130.3,149.1,128.3,149.1z
				 M104.5,146.1c0-0.9,0.8-1.7,1.7-1.7h8c0.9,0,1.7,0.8,1.7,1.7v2.6h-11.4V146.1z M110.3,171.1c-4.6,0-8.3-3.7-8.3-8.3
				s3.7-8.3,8.3-8.3s8.3,3.7,8.3,8.3S114.8,171.1,110.3,171.1z"/>
		</g>
		<g>
			<g>
				<path fill="#232946" d="M80.7,125.2c0.9,1,0.8,2.6-0.3,3.5l-21.5,18.4l-14.2,12.1c-1.5-0.8-3-1.7-4.5-2.7l13.6-11.7l23.3-20
					C78.3,124,79.8,124.2,80.7,125.2L80.7,125.2z"/>
			</g>
		</g>
		<path fill="#0EADA5" d="M85.5,113.4l1.9,3.5c0.5,0.9,1.6,1.5,2.7,1.3l4-0.6l-3.5,2c-0.9,0.5-1.4,1.6-1.3,2.6l0.6,4l-2.1-3.4
			c-0.5-0.9-1.5-1.3-2.5-1.2l-4,0.4l3.6-1.8c1-0.5,1.6-1.7,1.4-2.8L85.5,113.4z"/>
		<path fill="#232946" d="M85.6,127.6l0.6,3.3c0.2,0.9,0.9,1.6,1.8,1.8l3.3,0.6l-3.3,0.6c-0.9,0.2-1.6,0.9-1.7,1.7l-0.6,3.3
			l-0.7-3.3c-0.2-0.8-0.8-1.5-1.6-1.6l-3.3-0.7l3.4-0.5c1-0.1,1.7-0.9,1.9-1.9L85.6,127.6z"/>
		<path fill="#0EADA5" d="M70.7,118.9l0.4,2.3c0.1,0.6,0.6,1.1,1.2,1.2l2.3,0.4l-2.3,0.4c-0.6,0.1-1.1,0.6-1.2,1.2l-0.4,2.3
			l-0.5-2.3c-0.1-0.6-0.6-1-1.1-1.1l-2.3-0.5l2.3-0.3c0.7-0.1,1.2-0.6,1.3-1.3L70.7,118.9z"/>
		<path fill="#232946" d="M78,116.2l0.3,1.5c0.1,0.4,0.4,0.7,0.8,0.8l1.5,0.3L79,119c-0.4,0.1-0.7,0.4-0.8,0.8l-0.3,1.5l-0.3-1.5
			c-0.1-0.4-0.4-0.6-0.7-0.7l-1.5-0.3l1.5-0.2c0.4-0.1,0.8-0.4,0.8-0.8L78,116.2z"/>
	</g>
	<g>
		<g>
			<path fill="#232946" d="M174.8,53.6l7.9,23.8l7.9-23.8h9.6v31h-6.4l0.5-24.2l-8,24.2h-6.9l-8.2-24.4l0.6,24.4h-6.7v-31H174.8z"/>
			<path fill="#232946" d="M214,60.9c-1.2,1.3-1.8,3-2,5.3l18.1,0v5.4H212c0,1.1,0.1,2.1,0.4,3.2c0.2,1,0.7,1.9,1.5,2.8
				c0.7,0.8,1.4,1.3,2.4,1.4c0.9,0.2,1.8,0.3,2.8,0.3c0.1,0,0.1,0,0.2,0s0.1,0,0.2,0l10.7,0v5.4h-11c-1.8,0-3.5-0.2-5.1-0.5
				c-1.6-0.3-3.2-1.1-4.6-2.2c-1.7-1.4-2.9-3.1-3.6-5.2c-0.7-2-1.1-4.1-1.1-6.2c0-0.5,0-0.9,0-1.3c0-0.4,0-0.9,0.1-1.3
				c0.3-4.9,1.6-8.5,4-10.8c2.3-2.3,5.9-3.5,10.6-3.5l10.8,0V59h-10.7C217,59,215.2,59.6,214,60.9z"/>
			<path fill="#232946" d="M250,53.6c4.7,0,8.3,1.2,10.6,3.5c2.3,2.3,3.7,5.9,4,10.8c0,0.4,0.1,0.9,0.1,1.3c0,0.4,0,0.9,0,1.3
				c-0.1,2.1-0.4,4.2-1.1,6.2c-0.7,2-1.9,3.8-3.6,5.2c-1.4,1.2-2.9,1.9-4.6,2.2s-3.3,0.5-5.1,0.5h-14.4v-31H250z M249.9,59h-7.6
				v20.2h7.6c0.1,0,0.1,0,0.2,0c0.1,0,0.1,0,0.2,0c1,0,1.9-0.1,2.8-0.3c0.9-0.2,1.7-0.7,2.4-1.4c0.7-0.8,1.2-1.7,1.4-2.7
				c0.3-1,0.5-2,0.5-3.1c0-0.4,0-0.9,0-1.3s0-0.9,0-1.3c0-0.4,0-0.9,0-1.4c0-0.5,0-0.9-0.1-1.4c-0.1-1-0.2-2-0.5-3
				c-0.3-1-0.8-1.8-1.4-2.6c-0.7-0.8-1.5-1.3-2.4-1.5s-1.8-0.3-2.8-0.3c-0.1,0-0.1,0-0.2,0C250,59,250,59,249.9,59L249.9,59z"/>
			<path fill="#232946" d="M269.2,84.6v-31h6.8v31H269.2z"/>
			<path fill="#232946" d="M289.1,62c-0.9,2-1.4,4.4-1.5,7.1c0,0.5,0,0.9,0,1.4c0,0.5,0,1,0,1.4c0.1,1,0.3,2,0.6,3
				c0.3,1,0.8,1.8,1.4,2.6c0.7,0.8,1.5,1.3,2.4,1.4c0.9,0.2,1.8,0.3,2.8,0.3c0.1,0,0.1,0,0.2,0c0.1,0,0.1,0,0.2,0l10.7,0v5.4h-11
				c-1.8,0-3.5-0.2-5.1-0.5c-1.6-0.3-3.2-1.1-4.6-2.2c-1.7-1.4-2.9-3.1-3.6-5.2c-0.7-2-1.1-4.1-1.1-6.2c0-0.5,0-0.9,0-1.3
				s0-0.9,0.1-1.3c0.3-4.9,1.6-8.5,4-10.8c2.3-2.3,5.9-3.5,10.6-3.5l10.8,0v5.3h-10.7C292.1,58.9,290.1,59.9,289.1,62z"/>
			<path fill="#232946" d="M326.6,53.6l13.2,31h-7.3l-2.9-7.4h-13.5l-2.8,7.4h-6.9l13.1-31H326.6z M318.3,71.7h9.2l-4.7-11.9
				L318.3,71.7z"/>
			<path fill="#232946" d="M358,53.6c0.3,0,0.6,0,0.9,0c0.3,0,0.6,0,0.9,0c1.2,0.1,2.3,0.2,3.5,0.6c1.1,0.3,2.1,0.9,3,1.8
				c0.8,0.7,1.4,1.6,1.8,2.6c0.4,1,0.6,2,0.7,3.1c0,0.2,0,0.4,0,0.6c0,0.2,0,0.4,0,0.6c0,2.2-0.5,4-1.5,5.6c-1,1.6-2.6,2.6-4.8,3.1
				l7.7,12.9H363l-6.8-12.2h-7.7v12.2H342v-31H358z M356.5,59.1h-8v7.8h8c0.1,0,0.1,0,0.2,0c0.1,0,0.1,0,0.2,0
				c1.4,0,2.6-0.2,3.8-0.6c1.1-0.4,1.7-1.5,1.7-3.3c0-1.8-0.6-3-1.8-3.3C359.3,59.3,358,59.1,356.5,59.1L356.5,59.1z"/>
			<path fill="#232946" d="M381.8,60.9c-1.2,1.3-1.8,3-2,5.3l18.1,0v5.4h-18.1c0,1.1,0.1,2.1,0.4,3.2c0.2,1,0.7,1.9,1.5,2.8
				c0.7,0.8,1.4,1.3,2.4,1.4c0.9,0.2,1.8,0.3,2.8,0.3c0.1,0,0.1,0,0.2,0c0.1,0,0.1,0,0.2,0l10.7,0v5.4h-11c-1.8,0-3.5-0.2-5.1-0.5
				c-1.6-0.3-3.2-1.1-4.6-2.2c-1.7-1.4-2.9-3.1-3.6-5.2c-0.7-2-1.1-4.1-1.1-6.2c0-0.5,0-0.9,0-1.3c0-0.4,0-0.9,0.1-1.3
				c0.3-4.9,1.7-8.5,4-10.8c2.3-2.3,5.9-3.5,10.6-3.5l10.8,0V59h-10.7C384.8,59,383,59.6,381.8,60.9z"/>
		</g>
		<g>
			<path fill="#232946" d="M174.8,99.2l7.9,23.8l7.9-23.8h9.6v31h-6.4l0.5-24.2l-8,24.2h-6.9l-8.2-24.4l0.6,24.4h-6.7v-31H174.8z"/>
			<path fill="#232946" d="M222.4,99.2l13.2,31h-7.3l-2.9-7.4H212l-2.8,7.4h-6.9l13.1-31H222.4z M214.2,117.3h9.2l-4.7-11.9
				L214.2,117.3z"/>
			<path fill="#232946" d="M249.1,111.8h15.4v18.4h-14c-1.8,0-3.5-0.2-5.2-0.5c-1.7-0.3-3.2-1-4.7-2.2c-1.7-1.4-2.9-3.1-3.6-5.2
				c-0.7-2-1.1-4.1-1.1-6.2c0-0.5,0-0.9,0-1.3c0-0.4,0-0.9,0.1-1.3c0.3-4.9,1.6-8.5,4-10.8c2.3-2.3,5.9-3.5,10.6-3.5l14,0v5.4h-14
				c-3.1,0-5.1,1.1-6,3.3c-0.9,2.1-1.4,4.5-1.4,7.1c0,0,0,0.1,0,0.1c0,0,0,0,0,0.1c0,2.6,0.5,4.9,1.4,6.8c0.9,1.9,2.9,2.9,6,2.9
				l7.3,0v-7.3h-8.7V111.8z"/>
			<path fill="#232946" d="M269.9,130.2v-31h6.8v31H269.9z"/>
			<path fill="#232946" d="M289.9,107.6c-0.9,2-1.4,4.4-1.5,7.1c0,0.5,0,0.9,0,1.4c0,0.5,0,1,0,1.4c0.1,1,0.3,2,0.6,3
				c0.3,1,0.8,1.8,1.4,2.6c0.7,0.8,1.5,1.3,2.4,1.4c0.9,0.2,1.8,0.3,2.8,0.3c0.1,0,0.1,0,0.2,0c0.1,0,0.1,0,0.2,0l10.7,0v5.4h-11
				c-1.8,0-3.5-0.2-5.1-0.5c-1.6-0.3-3.2-1.1-4.6-2.2c-1.7-1.4-2.9-3.1-3.6-5.2c-0.7-2-1.1-4.1-1.1-6.2c0-0.5,0-0.9,0-1.3
				c0-0.4,0-0.9,0.1-1.3c0.3-4.9,1.6-8.5,4-10.8c2.3-2.3,5.9-3.5,10.6-3.5l10.8,0v5.3H296C292.8,104.5,290.8,105.6,289.9,107.6z"/>
			<path fill="#232946" d="M311.5,130.2v-31h6.8v31H311.5z"/>
			<path fill="#232946" d="M340.6,99.2l13.2,31h-7.3l-2.9-7.4h-13.5l-2.8,7.4h-6.9l13.1-31H340.6z M332.4,117.3h9.2l-4.7-11.9
				L332.4,117.3z"/>
			<path fill="#232946" d="M364.3,99.2l12.7,22.3l-0.3-22.3h6.7v31h-7.6l-13.4-23.5l0.3,23.5H356v-31H364.3z"/>
		</g>
	</g>
</g>
</svg>
